<?xml version="1.0" encoding="UTF-8" standalone="no"?>
<svg
   viewBox="0 0 512 512"
   version="1.1"
   id="svg4"
   sodipodi:docname="icon.svg"
   inkscape:version="1.2.2 (b0a8486541, 2022-12-01)"
   inkscape:export-filename="../../android/app/src/main/res/mipmap-xxxhdpi/ic_launcher.png"
   inkscape:export-xdpi="36"
   inkscape:export-ydpi="36"
   xmlns:inkscape="http://www.inkscape.org/namespaces/inkscape"
   xmlns:sodipodi="http://sodipodi.sourceforge.net/DTD/sodipodi-0.dtd"
   xmlns="http://www.w3.org/2000/svg"
   xmlns:svg="http://www.w3.org/2000/svg">
  <defs
     id="defs8" />
  <sodipodi:namedview
     id="namedview6"
     pagecolor="#ffffff"
     bordercolor="#000000"
     borderopacity="0.25"
     inkscape:showpageshadow="2"
     inkscape:pageopacity="0.0"
     inkscape:pagecheckerboard="0"
     inkscape:deskcolor="#d1d1d1"
     showgrid="false"
     inkscape:zoom="1.9511719"
     inkscape:cx="125.05305"
     inkscape:cy="257.53754"
     inkscape:window-width="2530"
     inkscape:window-height="1387"
     inkscape:window-x="0"
     inkscape:window-y="0"
     inkscape:window-maximized="1"
     inkscape:current-layer="svg4" />
  <!--! Font Awesome Pro 6.4.0 by @fontawesome - https://fontawesome.com License - https://fontawesome.com/license (Commercial License) Copyright 2023 Fonticons, Inc. -->
  <path
     d="M0 96C0 60.7 28.7 32 64 32H196.1c19.1 0 37.4 7.6 50.9 21.1L289.9 96H448c35.3 0 64 28.7 64 64V416c0 35.3-28.7 64-64 64H64c-35.3 0-64-28.7-64-64V96zM64 80c-8.8 0-16 7.2-16 16V416c0 8.8 7.2 16 16 16H448c8.8 0 16-7.2 16-16V160c0-8.8-7.2-16-16-16H286.6c-10.6 0-20.8-4.2-28.3-11.7L213.1 87c-4.5-4.5-10.6-7-17-7H64z"
     id="path2" />
  <path
     style="fill:#000000;fill-opacity:1;stroke-width:0.512513"
     d="M 58.426426,479.43904 C 43.191641,478.05977 29.066894,471.2293 18.341041,460.05449 9.1907424,450.52118 3.8743585,440.25342 1.1863571,426.92292 0.29928486,422.5237 0.25625626,414.61642 0.25625626,256 c 0,-158.616416 0.0430286,-166.5237 0.93010084,-170.922923 2.6484322,-13.134266 8.0152726,-23.634637 16.7402199,-32.7527 9.680221,-10.11638 20.954036,-16.24983 35.118468,-19.105988 4.325729,-0.872253 9.107122,-0.930101 76.876875,-0.930101 67.63396,0 72.60907,0.0599 77.64565,0.934907 10.43206,1.81236 21.62953,6.433766 29.98198,12.374127 2.73751,1.946948 12.02084,10.822657 27.93396,26.707407 l 23.83385,23.791367 80.20619,0.0041 c 50.63072,0.0026 81.90705,0.195242 84.81879,0.522271 28.675,3.220608 50.65205,23.659363 56.4713,52.518573 0.88434,4.38575 0.9301,11.2168 0.9301,138.89089 0,127.67409 -0.0456,134.50514 -0.9301,138.89089 -2.63866,13.0858 -8.03766,23.64685 -16.74379,32.7527 -9.37496,9.80539 -19.85886,15.67107 -33.70862,18.85978 l -4.99386,1.14976 -196.29229,0.0741 C 151.11431,479.8 60.822422,479.65586 58.426426,479.43894 Z M 454.61433,430.89128 c 3.82266,-1.90432 5.97669,-4.0347 7.77695,-7.69156 l 1.6888,-3.43045 V 287.78654 155.8038 l -1.26905,-2.56256 c -1.62261,-3.27648 -5.03864,-6.69304 -8.11179,-8.11305 l -2.40695,-1.11217 -86.35836,-0.26463 -86.35835,-0.26463 -3.46759,-1.11093 c -4.50724,-1.44401 -8.45715,-3.26772 -11.50719,-5.31295 -1.34786,-0.90381 -13.86687,-13.01614 -27.82002,-26.91627 -18.03029,-17.961774 -26.2402,-25.793488 -28.37963,-27.072293 -5.97069,-3.568885 -2.50603,-3.426544 -79.50425,-3.26633 l -69.189192,0.143965 -2.322041,1.156764 C 53.733703,82.927999 51.576,84.996464 49.677474,88.498108 L 47.91992,91.73974 V 256 420.26026 l 1.757554,3.24163 c 2.376797,4.38376 5.959552,7.21363 10.542746,8.32726 0.845646,0.20548 89.40781,0.33878 196.80481,0.29625 l 195.26726,-0.0774 z"
     id="path473" />
  <path
     style="fill:#0b0b0f;fill-opacity:1;stroke-width:0.512513"
     d="M 58.426426,479.43873 C 44.028146,478.13623 30.503851,471.92314 20.066537,461.81611 10.054754,452.12115 4.0175539,440.96357 1.1863571,426.92292 0.29928486,422.5237 0.25625626,414.61642 0.25625626,256 0.25625626,97.383584 0.29928486,89.4763 1.1863571,85.077077 4.0425151,70.912645 10.175965,59.63883 20.292345,49.958609 c 9.161809,-8.766807 19.69086,-14.152145 32.7527,-16.75216 4.302286,-0.856389 9.474388,-0.918161 76.876875,-0.918161 67.63396,0 72.60907,0.0599 77.64565,0.934907 10.43206,1.81236 21.62953,6.433766 29.98198,12.374127 2.73751,1.946948 12.02084,10.822657 27.93396,26.707407 l 23.83385,23.791367 h 80.09826 c 53.71024,0 81.72576,0.181481 85.0384,0.550859 28.57229,3.185998 50.54345,23.650255 56.35962,52.494185 0.88434,4.38575 0.9301,11.2168 0.9301,138.89089 0,127.6741 -0.0456,134.50514 -0.9301,138.89089 -2.85615,14.16443 -8.98961,25.43825 -19.10598,35.11847 -8.80899,8.42919 -18.67742,13.61994 -31.47142,16.55381 l -4.86887,1.11651 -196.29229,0.0606 C 151.11431,479.80558 60.822422,479.65548 58.426426,479.43873 Z M 455.52183,430.29694 c 3.72329,-2.01883 5.37011,-3.77944 7.23076,-7.73037 l 1.32749,-2.81882 V 287.77578 155.8038 l -1.26905,-2.56256 c -1.61949,-3.27018 -4.72109,-6.37228 -7.96954,-7.9708 l -2.5492,-1.25442 -86.35836,-0.26463 -86.35835,-0.26463 -3.46759,-1.11093 c -4.52735,-1.45045 -8.46996,-3.27403 -11.50719,-5.32243 -1.34786,-0.90903 -14.0975,-13.2302 -28.33253,-27.38039 C 207.65566,81.23097 207.87193,81.40714 200.10371,80.213388 197.68412,79.841565 174.69406,79.71256 128.12813,79.809506 l -68.420422,0.142446 -2.617627,1.38102 c -3.877711,2.045818 -5.474085,3.590157 -7.419052,7.177227 L 47.91992,91.73974 V 256 420.26026 l 1.221355,2.30631 c 2.673417,5.04826 6.723035,8.36 11.334633,9.26936 0.986899,0.19461 89.549322,0.32195 196.805372,0.28298 l 195.01101,-0.0709 z"
     id="path475" />
  <path
     style="fill:#a9b1d6;fill-opacity:1;stroke-width:0.512513"
     d="m 59.043982,430.82237 c -5.1071,-1.76664 -9.281131,-6.40036 -10.32681,-11.46411 -0.392622,-1.90129 -0.515179,-50.05712 -0.41966,-164.8958 l 0.13492,-162.210208 1.424674,-2.901099 c 1.640622,-3.340843 4.593687,-6.218995 7.994074,-7.791281 l 2.36904,-1.095408 68.16416,-0.141819 c 42.43821,-0.08829 69.39044,0.04666 71.41333,0.357585 1.78704,0.274672 4.78258,1.216973 6.65675,2.094002 3.12486,1.462301 5.5341,3.711822 29.03912,27.114038 14.09735,14.03569 26.72839,26.2575 28.06898,27.15959 3.21509,2.16343 9.11219,4.92056 12.93794,6.04901 2.87194,0.8471 8.76303,0.92435 89.17718,1.16934 l 86.1021,0.26232 2.9011,1.42467 c 3.34084,1.64062 6.21899,4.59369 7.79128,7.99408 l 1.09541,2.36904 v 131.71571 131.71572 l -1.09541,2.36904 c -1.57229,3.40038 -4.45044,6.35345 -7.79128,7.99407 l -2.9011,1.42468 -195.01101,0.11278 c -187.868793,0.10866 -195.110403,0.0784 -197.724788,-0.82595 z"
     id="path16090" />
  <path
     style="fill:#a9b1d6;fill-opacity:1;stroke-width:0.512513"
     d="M 60.978462,430.81591 C 56.628547,430.20305 52.591261,427.07614 50.073601,422.37 l -1.128656,-2.10974 -0.13127,-163.88671 -0.131271,-163.886715 1.302382,-2.570127 c 1.815401,-3.582522 4.461682,-6.346212 7.550385,-7.885378 l 2.630051,-1.310609 69.472938,0.0061 c 74.68974,0.0065 71.68158,-0.0953 77.28573,2.616587 1.7541,0.848825 7.17916,5.857196 19.35038,17.864122 35.52736,35.04777 36.59068,36.02804 41.89816,38.62552 9.25367,4.52874 -0.89277,4.04767 96.73648,4.58647 l 86.87087,0.47943 2.9859,1.57264 c 3.28148,1.72831 6.10061,4.63088 7.57061,7.7947 0.92055,1.98126 0.95251,6.46953 0.95251,133.76576 0,127.29623 -0.032,131.7845 -0.95251,133.76577 -1.47411,3.17267 -4.28853,6.0642 -7.64234,7.85177 l -3.05765,1.62971 -194.1705,-0.0685 C 150.67202,431.17314 62.252721,430.99543 60.978462,430.81591 Z"
     id="path20997" />
  <path
     style="fill:#54586b;fill-opacity:1;stroke-width:0.512513"
     d="M 60.978462,430.81591 C 56.374745,430.1673 52.228545,426.79359 49.89545,421.7978 l -1.196748,-2.56256 -0.005,-163.3804 -0.005,-163.380407 1.280327,-2.526606 c 1.759401,-3.47201 4.056046,-5.958067 7.136237,-7.724786 l 2.602455,-1.492701 69.701699,0.0013 c 74.92589,0.0014 71.89839,-0.100476 77.51448,2.607626 1.74027,0.839168 6.83534,5.505164 17.81285,16.312795 40.88072,40.248069 39.10202,38.675629 47.57654,42.059779 3.74652,1.49611 4.63135,1.63203 13.32533,2.04699 5.12179,0.24445 44.59799,0.60022 87.72488,0.79057 l 78.41254,0.3461 2.45471,1.2439 c 3.47191,1.75935 6.24644,4.43459 7.76996,7.4919 l 1.31061,2.63005 v 131.77071 131.77072 l -1.31061,2.63005 c -1.53834,3.08704 -4.3026,5.73485 -7.87917,7.54724 l -2.56393,1.29924 -194.13115,-0.0685 c -106.77215,-0.0377 -195.173739,-0.21538 -196.447998,-0.3949 z"
     id="path23903" />
  <path
     style="fill:#292e42;fill-opacity:1;stroke-width:0.512513"
     d="m 252.41241,479.45274 -197.829827,-0.25898 -5.192602,-1.38409 c -2.855931,-0.76126 -7.29557,-2.29075 -9.865866,-3.39886 -2.570295,-1.10811 -4.673264,-1.9164 -4.673264,-1.79618 0,0.12022 -0.288288,-0.0356 -0.640641,-0.34615 -0.352352,-0.3106 -2.485685,-1.74207 -4.740741,-3.18105 -5.306635,-3.38621 -15.014856,-13.10477 -18.569158,-18.58893 -1.461508,-2.25506 -2.839896,-4.33975 -3.0630834,-4.63264 -0.223188,-0.2929 -0.4551614,-0.75416 -0.5154969,-1.02503 -0.1831956,-0.82242 -3.4596069,-8.6744 -3.7341431,-8.94894 -0.140941,-0.14094 -0.2624547,-0.48688 -0.2700307,-0.76877 -0.00758,-0.28188 -0.5841524,-2.7035 -1.2812812,-5.38138 L 0.76876877,424.87287 V 256 87.127127 L 2.0407694,82.258258 c 0.6996004,-2.677878 1.244145,-5.157157 1.210099,-5.509509 -0.034046,-0.352353 0.1181011,-0.640641 0.3381046,-0.640641 0.2200034,0 0.5582487,-0.630489 0.7516563,-1.401086 0.1934076,-0.770596 1.1259255,-3.076903 2.0722624,-5.125125 0.9463365,-2.048222 1.5626456,-3.727571 1.369576,-3.731887 -0.1930702,-0.0043 -0.1090955,-0.17729 0.1866093,-0.384385 0.2957054,-0.207095 1.6740181,-2.106266 3.062917,-4.22038 2.081327,-3.168095 13.568607,-15.895409 13.568607,-15.033318 0,0.141123 0.864864,-0.421404 1.921922,-1.25006 1.057057,-0.828657 2.959759,-2.150982 4.228228,-2.938501 1.268468,-0.787519 2.475747,-1.685664 2.682842,-1.995877 0.207095,-0.310214 0.380068,-0.406013 0.384385,-0.212887 0.0043,0.193126 1.910551,-0.524589 4.236076,-1.594922 4.794448,-2.206665 5.956227,-2.687063 7.047047,-2.913962 0.422823,-0.08795 2.613814,-0.676092 4.868869,-1.306981 l 4.1001,-1.147072 71.75175,-0.180477 c 45.90695,-0.11547 73.78242,0.0067 77.38939,0.33904 3.1007,0.285734 7.48268,1.024104 9.73774,1.640821 2.25505,0.616718 4.5037,1.136361 4.997,1.154762 0.49329,0.0184 0.89689,0.214667 0.89689,0.436145 0,0.221479 0.28829,0.403805 0.64064,0.40517 1.04088,0.004 10.20657,4.275879 13.60893,6.342701 1.72861,1.050076 3.26553,1.897155 3.41539,1.882398 0.50887,-0.05011 7.15439,6.305958 23.5923,22.564728 9.02022,8.921919 19.26739,18.986756 22.77148,22.366299 l 6.37108,6.144631 82.03733,0.290815 c 73.35212,0.260033 82.55279,0.381042 86.9062,1.143036 5.40425,0.945924 11.9986,2.995336 17.14183,5.327386 1.86057,0.84362 3.43506,1.49874 3.49888,1.45582 0.0638,-0.0429 0.5773,0.31692 1.14107,0.79963 0.56376,0.48271 1.25565,0.92739 1.53754,0.98818 0.28188,0.0608 0.85845,0.38763 1.28128,0.72631 0.42282,0.33868 2.54729,2.02838 4.72104,3.75488 11.09973,8.81595 18.40059,20.49134 22.58703,36.1207 l 1.10465,4.12404 0.16147,131.71571 c 0.16064,131.03832 0.0243,144.08218 -1.55099,148.37238 -0.92582,2.52142 -1.35341,4.26945 -1.13199,4.62771 0.13932,0.22543 0.0789,0.48722 -0.13427,0.58177 -0.34102,0.15125 -3.57822,7.57505 -3.86546,8.86458 -0.0603,0.27087 -0.29152,0.73213 -0.51373,1.02503 -0.22221,0.29289 -1.5977,2.37758 -3.05663,4.63264 -2.15415,3.32965 -13.70851,16.21662 -13.70851,15.28957 0,-0.14112 -0.86487,0.42141 -1.92192,1.25006 -1.05706,0.82866 -2.95976,2.15099 -4.22823,2.9385 -1.26847,0.78752 -2.42162,1.57035 -2.56256,1.73963 -0.14094,0.16927 -0.48689,0.35228 -0.76877,0.40667 -1.14463,0.22091 -8.22677,3.52484 -8.57674,4.00119 -0.2071,0.28189 -0.38007,0.35057 -0.38438,0.15265 -0.004,-0.19793 -1.10335,-0.0226 -2.44229,0.38968 -5.13996,1.58258 -10.24197,2.68979 -13.19719,2.864 -1.69129,0.0997 -92.0985,0.0647 -200.90491,-0.0777 z m 202.9057,-48.92424 c 4.29245,-2.43972 5.65769,-3.96339 7.97576,-8.90132 1.03982,-2.21503 1.04247,-2.55546 1.04247,-133.91093 V 156.02598 l -1.27847,-2.52293 c -1.5994,-3.15626 -4.84504,-6.40608 -8.28236,-8.29301 l -2.6419,-1.45028 -51.17191,-0.0645 c -28.14455,-0.0355 -67.54668,-0.21615 -87.5603,-0.40152 -32.32925,-0.29946 -36.5599,-0.43071 -37.92592,-1.17659 -0.84565,-0.46175 -1.9988,-0.91529 -2.56257,-1.00789 -0.56376,-0.0926 -1.14034,-0.28366 -1.28128,-0.42461 -0.40818,-0.40818 -5.11264,-2.56467 -5.29903,-2.42904 -0.2508,0.18249 -4.61351,-3.99135 -27.22347,-26.04492 -26.01488,-25.374695 -29.42452,-28.56304 -31.43693,-29.396611 -0.90319,-0.374114 -1.64217,-0.864533 -1.64217,-1.08982 0,-0.225286 -0.63423,-0.547143 -1.40941,-0.715235 -0.77517,-0.168093 -1.98599,-0.468378 -2.69069,-0.667301 -0.7047,-0.198923 -32.93613,-0.429146 -71.62539,-0.511605 l -70.344112,-0.149927 -2.578005,1.306374 c -2.654799,1.345287 -5.803451,4.004775 -6.829681,5.768648 -0.320525,0.550915 -1.101691,1.946266 -1.735925,3.100788 l -1.153153,2.099128 V 256.00503 c 0,151.64547 0.06413,164.1739 0.848173,165.69009 1.933246,3.73855 5.288831,7.45162 8.120488,8.98558 1.036306,0.56138 3.460023,0.93269 7.431739,1.13853 3.241642,0.16799 91.896956,0.34586 197.011806,0.39526 l 191.11792,0.0898 z"
     id="path27742" />
  <path
     style="fill:#565f89;fill-opacity:1;stroke-width:0.512513"
     d="M 231.3994,430.76902 59.707708,430.51051 57.274644,429.3123 c -2.878864,-1.41775 -5.327626,-4.12693 -7.2159,-7.98329 l -1.370055,-2.79802 v -162.7754 c 0,-159.16917 0.02167,-162.817531 0.978147,-164.676908 1.892009,-3.678039 4.220557,-6.327771 7.322781,-8.332835 l 3.133263,-2.025126 36.180802,0.05122 c 19.899448,0.02817 51.868778,0.201143 71.042958,0.384385 l 34.86215,0.333167 3.40005,1.674094 c 2.96026,1.457559 5.99526,4.208626 23.46447,21.269263 34.14853,33.34989 35.46883,34.50262 42.73351,37.31021 3.39177,1.31082 5.15154,1.62981 11.27527,2.0439 3.99094,0.26987 43.6016,0.69672 88.02369,0.94856 79.48866,0.45064 80.79917,0.47423 82.77078,1.49012 3.28325,1.69172 6.07369,4.44068 7.80504,7.68902 l 1.62971,3.05765 v 131.05972 131.05973 l -1.57902,2.96253 c -1.88311,3.5331 -3.3053,4.96243 -7.3598,7.39679 l -3.04492,1.8282 -24.11824,-0.12587 c -13.26503,-0.0692 -101.3795,-0.24221 -195.80993,-0.38439 z"
     id="path29265" />
</svg>
